{
	"patcher" : 	{
		"fileversion" : 1,
		"appversion" : 		{
			"major" : 7,
			"minor" : 3,
			"revision" : 3,
			"architecture" : "x86",
			"modernui" : 1
		}
,
		"rect" : [ 473.0, 79.0, 1020.0, 743.0 ],
		"bglocked" : 0,
		"openinpresentation" : 0,
		"default_fontsize" : 12.0,
		"default_fontface" : 0,
		"default_fontname" : "Arial",
		"gridonopen" : 1,
		"gridsize" : [ 15.0, 15.0 ],
		"gridsnaponopen" : 1,
		"objectsnaponopen" : 1,
		"statusbarvisible" : 2,
		"toolbarvisible" : 1,
		"lefttoolbarpinned" : 0,
		"toptoolbarpinned" : 0,
		"righttoolbarpinned" : 0,
		"bottomtoolbarpinned" : 0,
		"toolbars_unpinned_last_save" : 0,
		"tallnewobj" : 0,
		"boxanimatetime" : 200,
		"enablehscroll" : 1,
		"enablevscroll" : 1,
		"devicewidth" : 0.0,
		"description" : "",
		"digest" : "",
		"tags" : "",
		"style" : "",
		"subpatcher_template" : "",
		"boxes" : [ 			{
				"box" : 				{
					"autofit" : 1,
					"forceaspect" : 1,
					"id" : "obj-42",
					"maxclass" : "fpic",
					"numinlets" : 1,
					"numoutlets" : 1,
					"outlettype" : [ "jit_matrix" ],
					"patching_rect" : [ 651.0, 764.0, 100.0, 77.336197 ],
					"pic" : "toronto.jpg"
				}

			}
, 			{
				"box" : 				{
					"autofit" : 1,
					"forceaspect" : 1,
					"id" : "obj-41",
					"maxclass" : "fpic",
					"numinlets" : 1,
					"numoutlets" : 1,
					"outlettype" : [ "jit_matrix" ],
					"patching_rect" : [ 497.0, 764.0, 100.0, 62.5 ],
					"pic" : "pont.jpg"
				}

			}
, 			{
				"box" : 				{
					"autofit" : 1,
					"forceaspect" : 1,
					"id" : "obj-40",
					"maxclass" : "fpic",
					"numinlets" : 1,
					"numoutlets" : 1,
					"outlettype" : [ "jit_matrix" ],
					"patching_rect" : [ 286.0, 768.0, 100.0, 62.5 ],
					"pic" : "NewYork.jpg"
				}

			}
, 			{
				"box" : 				{
					"autofit" : 1,
					"forceaspect" : 1,
					"id" : "obj-39",
					"maxclass" : "fpic",
					"numinlets" : 1,
					"numoutlets" : 1,
					"outlettype" : [ "jit_matrix" ],
					"patching_rect" : [ 95.0, 768.0, 100.0, 67.291664 ],
					"pic" : "chicago.jpg"
				}

			}
, 			{
				"box" : 				{
					"calccount" : 1060,
					"id" : "obj-70",
					"maxclass" : "scope~",
					"numinlets" : 2,
					"numoutlets" : 0,
					"patching_rect" : [ 436.666687, 1141.0, 163.666626, 131.0 ],
					"style" : ""
				}

			}
, 			{
				"box" : 				{
					"id" : "obj-57",
					"maxclass" : "multislider",
					"numinlets" : 1,
					"numoutlets" : 2,
					"outlettype" : [ "", "" ],
					"parameter_enable" : 0,
					"patching_rect" : [ 865.666687, 1141.0, 208.0, 140.0 ],
					"setminmax" : [ 0.0, 700.0 ],
					"setstyle" : 1,
					"size" : 10,
					"style" : ""
				}

			}
, 			{
				"box" : 				{
					"calccount" : 1060,
					"id" : "obj-50",
					"maxclass" : "scope~",
					"numinlets" : 2,
					"numoutlets" : 0,
					"patching_rect" : [ 617.666687, 1141.0, 208.0, 131.0 ],
					"style" : ""
				}

			}
, 			{
				"box" : 				{
					"calccount" : 1060,
					"id" : "obj-18",
					"maxclass" : "scope~",
					"numinlets" : 2,
					"numoutlets" : 0,
					"patching_rect" : [ 211.666687, 1141.0, 208.0, 131.0 ],
					"style" : ""
				}

			}
, 			{
				"box" : 				{
					"fontface" : 0,
					"fontname" : "Arial",
					"fontsize" : 12.0,
					"id" : "obj-19",
					"maxclass" : "number~",
					"mode" : 2,
					"numinlets" : 2,
					"numoutlets" : 2,
					"outlettype" : [ "signal", "float" ],
					"patching_rect" : [ 167.333344, 1063.5, 72.0, 22.0 ],
					"sig" : 0.0,
					"style" : ""
				}

			}
, 			{
				"box" : 				{
					"data" : 					{
						"clips" : [ 							{
								"filename" : "Kick 01.wav",
								"filekind" : "audiofile",
								"loop" : 1,
								"content_state" : 								{
									"basictuning" : [ 440 ],
									"timestretch" : [ 0 ],
									"quality" : [ "basic" ],
									"originaltempo" : [ 120.0 ],
									"formantcorrection" : [ 0 ],
									"mode" : [ "basic" ],
									"pitchshift" : [ 1.0 ],
									"pitchcorrection" : [ 0 ],
									"play" : [ 0 ],
									"followglobaltempo" : [ 0 ],
									"originallengthms" : [ 0.0 ],
									"formant" : [ 1.0 ],
									"slurtime" : [ 0.0 ],
									"originallength" : [ 0.0, "ticks" ],
									"speed" : [ 1.0 ]
								}

							}
 ]
					}
,
					"id" : "obj-20",
					"maxclass" : "playlist~",
					"numinlets" : 1,
					"numoutlets" : 5,
					"outlettype" : [ "signal", "signal", "signal", "", "dictionary" ],
					"patching_rect" : [ 436.666687, 895.0, 150.0, 30.0 ],
					"style" : ""
				}

			}
, 			{
				"box" : 				{
					"id" : "obj-21",
					"maxclass" : "newobj",
					"numinlets" : 2,
					"numoutlets" : 1,
					"outlettype" : [ "signal" ],
					"patching_rect" : [ 357.666687, 948.0, 68.0, 22.0 ],
					"style" : "",
					"text" : "cycle~ 440"
				}

			}
, 			{
				"box" : 				{
					"data" : 					{
						"clips" : [ 							{
								"filename" : "social.aif",
								"filekind" : "audiofile",
								"loop" : 1,
								"content_state" : 								{
									"basictuning" : [ 440 ],
									"timestretch" : [ 0 ],
									"quality" : [ "basic" ],
									"originaltempo" : [ 120.0 ],
									"formantcorrection" : [ 0 ],
									"mode" : [ "basic" ],
									"pitchshift" : [ 1.0 ],
									"pitchcorrection" : [ 0 ],
									"play" : [ 0 ],
									"followglobaltempo" : [ 0 ],
									"originallengthms" : [ 0.0 ],
									"formant" : [ 1.0 ],
									"slurtime" : [ 0.0 ],
									"originallength" : [ 0.0, "ticks" ],
									"speed" : [ 1.0 ]
								}

							}
 ]
					}
,
					"id" : "obj-22",
					"maxclass" : "playlist~",
					"numinlets" : 1,
					"numoutlets" : 5,
					"outlettype" : [ "signal", "signal", "signal", "", "dictionary" ],
					"patching_rect" : [ 527.666687, 944.0, 150.0, 30.0 ],
					"style" : ""
				}

			}
, 			{
				"box" : 				{
					"id" : "obj-23",
					"maxclass" : "newobj",
					"numinlets" : 4,
					"numoutlets" : 5,
					"outlettype" : [ "", "", "", "", "" ],
					"patching_rect" : [ 422.666687, 1023.0, 124.0, 22.0 ],
					"style" : "",
					"text" : "analyseAudio.maxpat"
				}

			}
, 			{
				"box" : 				{
					"id" : "obj-27",
					"maxclass" : "newobj",
					"numinlets" : 3,
					"numoutlets" : 1,
					"outlettype" : [ "" ],
					"patching_rect" : [ 620.5, 693.0, 137.0, 22.0 ],
					"style" : "",
					"text" : "lecteurVideo toronto.jpg"
				}

			}
, 			{
				"box" : 				{
					"id" : "obj-28",
					"maxclass" : "newobj",
					"numinlets" : 3,
					"numoutlets" : 1,
					"outlettype" : [ "" ],
					"patching_rect" : [ 469.5, 693.0, 123.0, 22.0 ],
					"style" : "",
					"text" : "lecteurVideo pont.jpg"
				}

			}
, 			{
				"box" : 				{
					"id" : "obj-29",
					"maxclass" : "newobj",
					"numinlets" : 3,
					"numoutlets" : 1,
					"outlettype" : [ "" ],
					"patching_rect" : [ 279.5, 693.0, 147.0, 22.0 ],
					"style" : "",
					"text" : "lecteurVideo NewYork.jpg"
				}

			}
, 			{
				"box" : 				{
					"id" : "obj-30",
					"maxclass" : "toggle",
					"numinlets" : 1,
					"numoutlets" : 1,
					"outlettype" : [ "int" ],
					"parameter_enable" : 0,
					"patching_rect" : [ 448.5, 592.0, 24.0, 24.0 ],
					"style" : ""
				}

			}
, 			{
				"box" : 				{
					"id" : "obj-32",
					"maxclass" : "newobj",
					"numinlets" : 3,
					"numoutlets" : 1,
					"outlettype" : [ "" ],
					"patching_rect" : [ 106.5, 693.0, 141.0, 22.0 ],
					"style" : "",
					"text" : "lecteurVideo chicago.jpg"
				}

			}
, 			{
				"box" : 				{
					"id" : "obj-17",
					"maxclass" : "jit.pwindow",
					"numinlets" : 1,
					"numoutlets" : 2,
					"outlettype" : [ "", "" ],
					"patching_rect" : [ 686.0, 371.5, 140.0, 100.0 ]
				}

			}
, 			{
				"box" : 				{
					"data" : 					{
						"clips" : [ 							{
								"filename" : "dishes.mov",
								"filekind" : "moviefile",
								"loop" : 1,
								"content_state" : 								{
									"outputmode" : [ 1 ],
									"out_name" : [ "u964000392" ],
									"dim" : [ 1, 1 ],
									"interp" : [ 0 ],
									"drawto" : [ "" ],
									"colormode" : [ "argb" ],
									"output_texture" : [ 0 ],
									"usedstrect" : [ 0 ],
									"rate" : [ 1.0 ],
									"moviefile" : [ "" ],
									"dstrect" : [ 0, 0, 1, 1 ],
									"position" : [ 0.0 ],
									"vol" : [ 1.0 ],
									"unique" : [ 0 ],
									"texture_name" : [ "u192000390" ],
									"autostart" : [ 1 ],
									"loopstart" : [ 0 ],
									"looppoints" : [ 0, 0 ],
									"adapt" : [ 1 ],
									"time" : [ 0 ],
									"usesrcrect" : [ 0 ],
									"automatic" : [ 0 ],
									"framereport" : [ 0 ],
									"srcrect" : [ 0, 0, 1, 1 ],
									"time_secs" : [ 0.0 ],
									"loopreport" : [ 0 ],
									"loopend" : [ 0 ],
									"engine" : [ "avf" ]
								}

							}
 ]
					}
,
					"id" : "obj-16",
					"maxclass" : "jit.playlist",
					"numinlets" : 1,
					"numoutlets" : 3,
					"outlettype" : [ "jit_matrix", "", "dictionary" ],
					"patching_rect" : [ 686.0, 222.0, 150.0, 30.0 ],
					"style" : ""
				}

			}
, 			{
				"box" : 				{
					"id" : "obj-15",
					"maxclass" : "newobj",
					"numinlets" : 1,
					"numoutlets" : 1,
					"outlettype" : [ "" ],
					"patching_rect" : [ 691.0, 307.0, 118.0, 22.0 ],
					"style" : "",
					"text" : "\"Effet miroir.maxpat\""
				}

			}
, 			{
				"box" : 				{
					"id" : "obj-13",
					"maxclass" : "jit.pwindow",
					"numinlets" : 1,
					"numoutlets" : 2,
					"outlettype" : [ "", "" ],
					"patching_rect" : [ 536.0, 544.0, 140.0, 31.0 ]
				}

			}
, 			{
				"box" : 				{
					"id" : "obj-12",
					"maxclass" : "jit.pwindow",
					"numinlets" : 1,
					"numoutlets" : 2,
					"outlettype" : [ "", "" ],
					"patching_rect" : [ 515.0, 501.0, 140.0, 31.0 ]
				}

			}
, 			{
				"box" : 				{
					"id" : "obj-11",
					"maxclass" : "jit.pwindow",
					"numinlets" : 1,
					"numoutlets" : 2,
					"outlettype" : [ "", "" ],
					"patching_rect" : [ 494.0, 455.0, 140.0, 31.0 ]
				}

			}
, 			{
				"box" : 				{
					"id" : "obj-10",
					"maxclass" : "jit.pwindow",
					"numinlets" : 1,
					"numoutlets" : 2,
					"outlettype" : [ "", "" ],
					"patching_rect" : [ 479.0, 406.0, 140.0, 31.0 ]
				}

			}
, 			{
				"box" : 				{
					"id" : "obj-88",
					"maxclass" : "jit.pwindow",
					"numinlets" : 1,
					"numoutlets" : 2,
					"outlettype" : [ "", "" ],
					"patching_rect" : [ 461.0, 361.0, 140.0, 31.0 ]
				}

			}
, 			{
				"box" : 				{
					"id" : "obj-9",
					"maxclass" : "newobj",
					"numinlets" : 1,
					"numoutlets" : 5,
					"outlettype" : [ "", "", "", "", "" ],
					"patching_rect" : [ 461.0, 307.0, 148.0, 22.0 ],
					"style" : "",
					"text" : "\"Effet decoupage.maxpat\""
				}

			}
, 			{
				"box" : 				{
					"data" : 					{
						"clips" : [ 							{
								"filename" : "dishes.mov",
								"filekind" : "moviefile",
								"loop" : 1,
								"content_state" : 								{
									"outputmode" : [ 1 ],
									"out_name" : [ "u964000392" ],
									"dim" : [ 1, 1 ],
									"interp" : [ 0 ],
									"drawto" : [ "" ],
									"colormode" : [ "argb" ],
									"output_texture" : [ 0 ],
									"usedstrect" : [ 0 ],
									"rate" : [ 1.0 ],
									"moviefile" : [ "" ],
									"dstrect" : [ 0, 0, 1, 1 ],
									"position" : [ 0.0 ],
									"vol" : [ 1.0 ],
									"unique" : [ 0 ],
									"texture_name" : [ "u192000390" ],
									"autostart" : [ 1 ],
									"loopstart" : [ 0 ],
									"looppoints" : [ 0, 0 ],
									"adapt" : [ 1 ],
									"time" : [ 0 ],
									"usesrcrect" : [ 0 ],
									"automatic" : [ 0 ],
									"framereport" : [ 0 ],
									"srcrect" : [ 0, 0, 1, 1 ],
									"time_secs" : [ 0.0 ],
									"loopreport" : [ 0 ],
									"loopend" : [ 0 ],
									"engine" : [ "avf" ]
								}

							}
 ]
					}
,
					"id" : "obj-8",
					"maxclass" : "jit.playlist",
					"numinlets" : 1,
					"numoutlets" : 3,
					"outlettype" : [ "jit_matrix", "", "dictionary" ],
					"patching_rect" : [ 461.0, 222.0, 150.0, 30.0 ],
					"style" : ""
				}

			}
, 			{
				"box" : 				{
					"id" : "obj-2",
					"maxclass" : "jit.pwindow",
					"numinlets" : 1,
					"numoutlets" : 2,
					"outlettype" : [ "", "" ],
					"patching_rect" : [ 262.0, 386.0, 140.0, 100.0 ]
				}

			}
, 			{
				"box" : 				{
					"format" : 6,
					"id" : "obj-6",
					"maxclass" : "flonum",
					"numinlets" : 1,
					"numoutlets" : 2,
					"outlettype" : [ "", "bang" ],
					"parameter_enable" : 0,
					"patching_rect" : [ 388.0, 273.0, 50.0, 22.0 ],
					"style" : ""
				}

			}
, 			{
				"box" : 				{
					"data" : 					{
						"clips" : [ 							{
								"filename" : "dishes.mov",
								"filekind" : "moviefile",
								"loop" : 1,
								"content_state" : 								{
									"outputmode" : [ 1 ],
									"out_name" : [ "u964000392" ],
									"dim" : [ 1, 1 ],
									"interp" : [ 0 ],
									"drawto" : [ "" ],
									"colormode" : [ "argb" ],
									"output_texture" : [ 0 ],
									"usedstrect" : [ 0 ],
									"rate" : [ 1.0 ],
									"moviefile" : [ "" ],
									"dstrect" : [ 0, 0, 1, 1 ],
									"position" : [ 0.0 ],
									"vol" : [ 1.0 ],
									"unique" : [ 0 ],
									"texture_name" : [ "u192000390" ],
									"autostart" : [ 1 ],
									"loopstart" : [ 0 ],
									"looppoints" : [ 0, 0 ],
									"adapt" : [ 1 ],
									"time" : [ 0 ],
									"usesrcrect" : [ 0 ],
									"automatic" : [ 0 ],
									"framereport" : [ 0 ],
									"srcrect" : [ 0, 0, 1, 1 ],
									"time_secs" : [ 0.0 ],
									"loopreport" : [ 0 ],
									"loopend" : [ 0 ],
									"engine" : [ "avf" ]
								}

							}
 ]
					}
,
					"id" : "obj-14",
					"maxclass" : "jit.playlist",
					"numinlets" : 1,
					"numoutlets" : 3,
					"outlettype" : [ "jit_matrix", "", "dictionary" ],
					"patching_rect" : [ 288.0, 222.0, 150.0, 30.0 ],
					"style" : ""
				}

			}
, 			{
				"box" : 				{
					"id" : "obj-24",
					"maxclass" : "newobj",
					"numinlets" : 2,
					"numoutlets" : 1,
					"outlettype" : [ "" ],
					"patching_rect" : [ 269.0, 307.0, 152.0, 22.0 ],
					"style" : "",
					"text" : "\"Effet colimétrique.maxpat\""
				}

			}
, 			{
				"box" : 				{
					"id" : "obj-34",
					"maxclass" : "newobj",
					"numinlets" : 2,
					"numoutlets" : 1,
					"outlettype" : [ "" ],
					"patching_rect" : [ 27.0, 327.0, 100.0, 22.0 ],
					"style" : "",
					"text" : "negatif.maxpat"
				}

			}
, 			{
				"box" : 				{
					"id" : "obj-35",
					"maxclass" : "jit.pwindow",
					"numinlets" : 1,
					"numoutlets" : 2,
					"outlettype" : [ "", "" ],
					"patching_rect" : [ 12.0, 386.0, 140.0, 100.0 ]
				}

			}
, 			{
				"box" : 				{
					"id" : "obj-36",
					"maxclass" : "toggle",
					"numinlets" : 1,
					"numoutlets" : 1,
					"outlettype" : [ "int" ],
					"parameter_enable" : 0,
					"patching_rect" : [ 118.0, 290.0, 24.0, 24.0 ],
					"style" : ""
				}

			}
, 			{
				"box" : 				{
					"data" : 					{
						"clips" : [ 							{
								"filename" : "dishes.mov",
								"filekind" : "moviefile",
								"loop" : 1,
								"content_state" : 								{
									"outputmode" : [ 1 ],
									"out_name" : [ "u964000392" ],
									"dim" : [ 1, 1 ],
									"interp" : [ 0 ],
									"drawto" : [ "" ],
									"colormode" : [ "argb" ],
									"output_texture" : [ 0 ],
									"usedstrect" : [ 0 ],
									"rate" : [ 1.0 ],
									"moviefile" : [ "" ],
									"dstrect" : [ 0, 0, 1, 1 ],
									"position" : [ 0.0 ],
									"vol" : [ 1.0 ],
									"unique" : [ 0 ],
									"texture_name" : [ "u192000390" ],
									"autostart" : [ 1 ],
									"loopstart" : [ 0 ],
									"looppoints" : [ 0, 0 ],
									"adapt" : [ 1 ],
									"time" : [ 0 ],
									"usesrcrect" : [ 0 ],
									"automatic" : [ 0 ],
									"framereport" : [ 0 ],
									"srcrect" : [ 0, 0, 1, 1 ],
									"time_secs" : [ 0.0 ],
									"loopreport" : [ 0 ],
									"loopend" : [ 0 ],
									"engine" : [ "avf" ]
								}

							}
 ]
					}
,
					"id" : "obj-37",
					"maxclass" : "jit.playlist",
					"numinlets" : 1,
					"numoutlets" : 3,
					"outlettype" : [ "jit_matrix", "", "dictionary" ],
					"patching_rect" : [ 38.0, 237.0, 150.0, 30.0 ],
					"style" : ""
				}

			}
, 			{
				"box" : 				{
					"id" : "obj-38",
					"maxclass" : "newobj",
					"numinlets" : 0,
					"numoutlets" : 0,
					"patching_rect" : [ 65.0, 152.0, 120.0, 22.0 ],
					"style" : "",
					"text" : "mixageVideo.maxpat"
				}

			}
, 			{
				"box" : 				{
					"id" : "obj-7",
					"maxclass" : "comment",
					"numinlets" : 1,
					"numoutlets" : 0,
					"patching_rect" : [ 90.0, 87.0, 326.0, 20.0 ],
					"style" : "",
					"text" : "à tester réellement qd envoiAudio réseau fonctionnel"
				}

			}
, 			{
				"box" : 				{
					"id" : "obj-5",
					"maxclass" : "newobj",
					"numinlets" : 0,
					"numoutlets" : 2,
					"outlettype" : [ "signal", "signal" ],
					"patching_rect" : [ 726.0, 50.0, 205.0, 22.0 ],
					"style" : "",
					"text" : "receptionAudioReseau.maxpat 8005"
				}

			}
, 			{
				"box" : 				{
					"id" : "obj-4",
					"maxclass" : "newobj",
					"numinlets" : 0,
					"numoutlets" : 2,
					"outlettype" : [ "signal", "signal" ],
					"patching_rect" : [ 487.0, 50.0, 205.0, 22.0 ],
					"style" : "",
					"text" : "receptionAudioReseau.maxpat 8004"
				}

			}
, 			{
				"box" : 				{
					"id" : "obj-3",
					"maxclass" : "newobj",
					"numinlets" : 0,
					"numoutlets" : 2,
					"outlettype" : [ "signal", "signal" ],
					"patching_rect" : [ 262.0, 50.0, 205.0, 22.0 ],
					"style" : "",
					"text" : "receptionAudioReseau.maxpat 8003"
				}

			}
, 			{
				"box" : 				{
					"id" : "obj-1",
					"maxclass" : "newobj",
					"numinlets" : 0,
					"numoutlets" : 2,
					"outlettype" : [ "signal", "signal" ],
					"patching_rect" : [ 48.0, 50.0, 205.0, 22.0 ],
					"style" : "",
					"text" : "receptionAudioReseau.maxpat 8002"
				}

			}
 ],
		"lines" : [ 			{
				"patchline" : 				{
					"destination" : [ "obj-24", 0 ],
					"disabled" : 0,
					"hidden" : 0,
					"source" : [ "obj-14", 0 ]
				}

			}
, 			{
				"patchline" : 				{
					"destination" : [ "obj-17", 0 ],
					"disabled" : 0,
					"hidden" : 0,
					"source" : [ "obj-15", 0 ]
				}

			}
, 			{
				"patchline" : 				{
					"destination" : [ "obj-15", 0 ],
					"disabled" : 0,
					"hidden" : 0,
					"source" : [ "obj-16", 0 ]
				}

			}
, 			{
				"patchline" : 				{
					"destination" : [ "obj-23", 1 ],
					"disabled" : 0,
					"hidden" : 0,
					"source" : [ "obj-20", 0 ]
				}

			}
, 			{
				"patchline" : 				{
					"destination" : [ "obj-23", 0 ],
					"disabled" : 0,
					"hidden" : 0,
					"source" : [ "obj-21", 0 ]
				}

			}
, 			{
				"patchline" : 				{
					"destination" : [ "obj-23", 3 ],
					"disabled" : 0,
					"hidden" : 0,
					"source" : [ "obj-22", 1 ]
				}

			}
, 			{
				"patchline" : 				{
					"destination" : [ "obj-23", 2 ],
					"disabled" : 0,
					"hidden" : 0,
					"source" : [ "obj-22", 0 ]
				}

			}
, 			{
				"patchline" : 				{
					"destination" : [ "obj-18", 0 ],
					"disabled" : 0,
					"hidden" : 0,
					"source" : [ "obj-23", 1 ]
				}

			}
, 			{
				"patchline" : 				{
					"destination" : [ "obj-19", 0 ],
					"disabled" : 0,
					"hidden" : 0,
					"source" : [ "obj-23", 0 ]
				}

			}
, 			{
				"patchline" : 				{
					"destination" : [ "obj-50", 0 ],
					"disabled" : 0,
					"hidden" : 0,
					"source" : [ "obj-23", 3 ]
				}

			}
, 			{
				"patchline" : 				{
					"destination" : [ "obj-57", 0 ],
					"disabled" : 0,
					"hidden" : 0,
					"source" : [ "obj-23", 4 ]
				}

			}
, 			{
				"patchline" : 				{
					"destination" : [ "obj-70", 0 ],
					"disabled" : 0,
					"hidden" : 0,
					"source" : [ "obj-23", 2 ]
				}

			}
, 			{
				"patchline" : 				{
					"destination" : [ "obj-2", 0 ],
					"disabled" : 0,
					"hidden" : 0,
					"source" : [ "obj-24", 0 ]
				}

			}
, 			{
				"patchline" : 				{
					"destination" : [ "obj-42", 0 ],
					"disabled" : 0,
					"hidden" : 0,
					"source" : [ "obj-27", 0 ]
				}

			}
, 			{
				"patchline" : 				{
					"destination" : [ "obj-41", 0 ],
					"disabled" : 0,
					"hidden" : 0,
					"source" : [ "obj-28", 0 ]
				}

			}
, 			{
				"patchline" : 				{
					"destination" : [ "obj-40", 0 ],
					"disabled" : 0,
					"hidden" : 0,
					"source" : [ "obj-29", 0 ]
				}

			}
, 			{
				"patchline" : 				{
					"destination" : [ "obj-27", 2 ],
					"disabled" : 0,
					"hidden" : 0,
					"order" : 0,
					"source" : [ "obj-30", 0 ]
				}

			}
, 			{
				"patchline" : 				{
					"destination" : [ "obj-28", 2 ],
					"disabled" : 0,
					"hidden" : 0,
					"order" : 1,
					"source" : [ "obj-30", 0 ]
				}

			}
, 			{
				"patchline" : 				{
					"destination" : [ "obj-29", 2 ],
					"disabled" : 0,
					"hidden" : 0,
					"order" : 2,
					"source" : [ "obj-30", 0 ]
				}

			}
, 			{
				"patchline" : 				{
					"destination" : [ "obj-32", 2 ],
					"disabled" : 0,
					"hidden" : 0,
					"order" : 3,
					"source" : [ "obj-30", 0 ]
				}

			}
, 			{
				"patchline" : 				{
					"destination" : [ "obj-39", 0 ],
					"disabled" : 0,
					"hidden" : 0,
					"source" : [ "obj-32", 0 ]
				}

			}
, 			{
				"patchline" : 				{
					"destination" : [ "obj-35", 0 ],
					"disabled" : 0,
					"hidden" : 0,
					"source" : [ "obj-34", 0 ]
				}

			}
, 			{
				"patchline" : 				{
					"destination" : [ "obj-34", 1 ],
					"disabled" : 0,
					"hidden" : 0,
					"source" : [ "obj-36", 0 ]
				}

			}
, 			{
				"patchline" : 				{
					"destination" : [ "obj-34", 0 ],
					"disabled" : 0,
					"hidden" : 0,
					"source" : [ "obj-37", 0 ]
				}

			}
, 			{
				"patchline" : 				{
					"destination" : [ "obj-24", 1 ],
					"disabled" : 0,
					"hidden" : 0,
					"source" : [ "obj-6", 0 ]
				}

			}
, 			{
				"patchline" : 				{
					"destination" : [ "obj-9", 0 ],
					"disabled" : 0,
					"hidden" : 0,
					"source" : [ "obj-8", 0 ]
				}

			}
, 			{
				"patchline" : 				{
					"destination" : [ "obj-10", 0 ],
					"disabled" : 0,
					"hidden" : 0,
					"source" : [ "obj-9", 1 ]
				}

			}
, 			{
				"patchline" : 				{
					"destination" : [ "obj-11", 0 ],
					"disabled" : 0,
					"hidden" : 0,
					"source" : [ "obj-9", 2 ]
				}

			}
, 			{
				"patchline" : 				{
					"destination" : [ "obj-12", 0 ],
					"disabled" : 0,
					"hidden" : 0,
					"source" : [ "obj-9", 3 ]
				}

			}
, 			{
				"patchline" : 				{
					"destination" : [ "obj-13", 0 ],
					"disabled" : 0,
					"hidden" : 0,
					"source" : [ "obj-9", 4 ]
				}

			}
, 			{
				"patchline" : 				{
					"destination" : [ "obj-88", 0 ],
					"disabled" : 0,
					"hidden" : 0,
					"source" : [ "obj-9", 0 ]
				}

			}
 ],
		"dependency_cache" : [ 			{
				"name" : "receptionAudioReseau.maxpat",
				"bootpath" : "~/Documents/mc_projet_s2/projetS2/votreAppli/regieVideo/patchers",
				"type" : "JSON",
				"implicit" : 1
			}
, 			{
				"name" : "dishes.mov",
				"bootpath" : "C74:/media/jitter",
				"type" : "MooV",
				"implicit" : 1
			}
, 			{
				"name" : "social.aif",
				"bootpath" : "C74:/packages/max-mxj/examples",
				"type" : "AIFF",
				"implicit" : 1
			}
, 			{
				"name" : "Kick 01.wav",
				"bootpath" : "C74:/packages/MaxIntroLessons/media",
				"type" : "WAVE",
				"implicit" : 1
			}
, 			{
				"name" : "chicago.jpg",
				"bootpath" : "~/Downloads/regieVideo - master/media",
				"type" : "JPEG",
				"implicit" : 1
			}
, 			{
				"name" : "NewYork.jpg",
				"bootpath" : "~/Downloads/regieVideo - master/media",
				"type" : "JPEG",
				"implicit" : 1
			}
, 			{
				"name" : "pont.jpg",
				"bootpath" : "~/Downloads/regieVideo - master/media",
				"type" : "JPEG",
				"implicit" : 1
			}
, 			{
				"name" : "toronto.jpg",
				"bootpath" : "~/Downloads/regieVideo - master/media",
				"type" : "JPEG",
				"implicit" : 1
			}
 ],
		"autosave" : 0,
		"styles" : [ 			{
				"name" : "AudioStatus_Menu",
				"default" : 				{
					"bgfillcolor" : 					{
						"type" : "color",
						"color" : [ 0.294118, 0.313726, 0.337255, 1 ],
						"color1" : [ 0.454902, 0.462745, 0.482353, 0.0 ],
						"color2" : [ 0.290196, 0.309804, 0.301961, 1.0 ],
						"angle" : 270.0,
						"proportion" : 0.39,
						"autogradient" : 0
					}

				}
,
				"parentstyle" : "",
				"multi" : 0
			}
, 			{
				"name" : "dialGold",
				"default" : 				{
					"bgcolor" : [ 0.764706, 0.592157, 0.101961, 1.0 ]
				}
,
				"parentstyle" : "",
				"multi" : 0
			}
, 			{
				"name" : "ksliderWhite",
				"default" : 				{
					"color" : [ 1.0, 1.0, 1.0, 1.0 ]
				}
,
				"parentstyle" : "",
				"multi" : 0
			}
, 			{
				"name" : "newobjBlue-1",
				"default" : 				{
					"accentcolor" : [ 0.317647, 0.654902, 0.976471, 1.0 ]
				}
,
				"parentstyle" : "",
				"multi" : 0
			}
, 			{
				"name" : "newobjBronze",
				"default" : 				{
					"accentcolor" : [ 0.654902, 0.572549, 0.376471, 1.0 ]
				}
,
				"parentstyle" : "newobjYellow",
				"multi" : 0
			}
, 			{
				"name" : "newobjBrown-1",
				"default" : 				{
					"accentcolor" : [ 0.654902, 0.572549, 0.376471, 1.0 ]
				}
,
				"parentstyle" : "",
				"multi" : 0
			}
, 			{
				"name" : "newobjCyan-1",
				"default" : 				{
					"accentcolor" : [ 0.029546, 0.773327, 0.821113, 1.0 ]
				}
,
				"parentstyle" : "",
				"multi" : 0
			}
, 			{
				"name" : "newobjGold-1",
				"default" : 				{
					"accentcolor" : [ 0.764706, 0.592157, 0.101961, 1.0 ]
				}
,
				"parentstyle" : "",
				"multi" : 0
			}
, 			{
				"name" : "newobjGreen-1",
				"default" : 				{
					"accentcolor" : [ 0.0, 0.533333, 0.168627, 1.0 ]
				}
,
				"parentstyle" : "",
				"multi" : 0
			}
, 			{
				"name" : "newobjMagenta-1",
				"default" : 				{
					"accentcolor" : [ 0.840663, 0.060168, 0.769195, 1.0 ]
				}
,
				"parentstyle" : "",
				"multi" : 0
			}
, 			{
				"name" : "newobjYellow-1",
				"default" : 				{
					"accentcolor" : [ 0.82517, 0.78181, 0.059545, 1.0 ],
					"fontsize" : [ 12.059008 ]
				}
,
				"parentstyle" : "",
				"multi" : 0
			}
, 			{
				"name" : "numberGold-1",
				"default" : 				{
					"accentcolor" : [ 0.764706, 0.592157, 0.101961, 1.0 ]
				}
,
				"parentstyle" : "",
				"multi" : 0
			}
, 			{
				"name" : "panelViolet",
				"default" : 				{
					"bgfillcolor" : 					{
						"type" : "color",
						"color" : [ 0.372549, 0.196078, 0.486275, 0.2 ],
						"color1" : [ 0.454902, 0.462745, 0.482353, 1.0 ],
						"color2" : [ 0.290196, 0.309804, 0.301961, 1.0 ],
						"angle" : 270.0,
						"proportion" : 0.39,
						"autogradient" : 0
					}

				}
,
				"parentstyle" : "",
				"multi" : 0
			}
 ]
	}

}
